<?xml version="1.0" encoding="UTF-8"?> <svg xmlns="http://www.w3.org/2000/svg" id="Composant_15_1" data-name="Composant 15 – 1" width="199" height="199" viewBox="0 0 199 199"><circle id="Ellipse" cx="99.5" cy="99.5" r="99.5" fill="#ffe051"></circle><g id="Logo_Nu" data-name="Logo Nu" transform="translate(22.657 61.767)"><path id="Logo_Nu-2" data-name="Logo Nu" d="M.022,37.811c0-12,1.168-32.475,10.047-32.475,14.486,0,17.758,31.3,30.142,31.3,10.748,0-.7-32,13.319-32,7.71,0,8.411,24.708,8.411,41.887S58.669,73.344,51.426,73.344c-15.187,0-21.263-33.416-31.543-33.416-11.215.235.234,33.416-14.019,33.416C-.679,73.344.022,49.811.022,37.811ZM68.717,40.4c2.57,16.237,11.45,34.358,31.311,34.358,31.543,0,33.179-27.3,33.179-34.358S125.729-7.136,114.747,1.1s1.87,32,1.87,41.181-.935,19.532-17.291,19.532c-19.159,0-7.243-50.829-29.44-50.829C63.109,12.4,66.147,24.162,68.717,40.4ZM140.45,23.691c-3.038,15.767-4.206,32.239.7,32.239s8.178-13.884,9.814-23.3c3.271-17.414,4.673-32.239-2.1-32.239C145.356.395,143.488,7.925,140.45,23.691Zm-.7,51.771c6.075.235,2.527-7.664-1.168-8.237C135.543,66.755,133.674,75.227,139.748,75.462Z" transform="translate(0 0)" fill="#fff"></path></g></svg> 